solid csg.js
facet normal -0.6313676458223854 -0.7693237023767577 -0.0975496630953519
outer loop
vertex 3.33289300941194 -4.944088369076361 10
vertex -1.213203435596423 -1.2132034355964265 10
vertex -0.8055976798322071 -0.8055976798322106 4.147290339516153
endloop
endfacet
facet normal -0.6313676458223854 -0.7693237023767577 -0.0975496630953519
outer loop
vertex 3.33289300941194 -4.944088369076361 10
vertex -0.8055976798322071 -0.8055976798322106 4.147290339516153
vertex 3.653146796725448 -4.4647947054675186 4.147290339516153
endloop
endfacet
facet normal -0.6313676458223872 -0.7693237023767564 0.0975496630953519
outer loop
vertex 3.653146796725448 -4.4647947054675186 15.852709660483846
vertex -0.8055976798322071 -0.8055976798322106 15.852709660483846
vertex -1.213203435596423 -1.2132034355964265 10
endloop
endfacet
facet normal -0.6313676458223872 -0.7693237023767564 0.0975496630953519
outer loop
vertex 3.653146796725448 -4.4647947054675186 15.852709660483846
vertex -1.213203435596423 -1.2132034355964265 10
vertex 3.33289300941194 -4.944088369076361 10
endloop
endfacet
facet normal -0.6073224059049376 -0.7400244927637368 0.289003884741386
outer loop
vertex 4.601600985219903 -3.045332701342492 21.480502970952692
vertex 0.4015555268543558 0.40155552685435225 21.480502970952692
vertex -0.8055976798322071 -0.8055976798322106 15.852709660483846
endloop
endfacet
facet normal -0.6073224059049376 -0.7400244927637368 0.289003884741386
outer loop
vertex 4.601600985219903 -3.045332701342492 21.480502970952692
vertex -0.8055976798322071 -0.8055976798322106 15.852709660483846
vertex 3.653146796725448 -4.4647947054675186 15.852709660483846
endloop
endfacet
facet normal -0.7693237023767564 -0.6313676458223872 -0.0975496630953519
outer loop
vertex -1.213203435596423 -1.2132034355964265 10
vertex -4.944088369076361 3.332893009411933 10
vertex -4.4647947054675186 3.6531467967254407 4.147290339516153
endloop
endfacet
facet normal -0.7693237023767564 -0.6313676458223872 -0.0975496630953519
outer loop
vertex -1.213203435596423 -1.2132034355964265 10
vertex -4.4647947054675186 3.6531467967254407 4.147290339516153
vertex -0.8055976798322071 -0.8055976798322106 4.147290339516153
endloop
endfacet
facet normal -0.7693237023767564 -0.6313676458223872 0.0975496630953519
outer loop
vertex -0.8055976798322071 -0.8055976798322106 15.852709660483846
vertex -4.4647947054675186 3.6531467967254407 15.852709660483846
vertex -4.944088369076361 3.332893009411933 10
endloop
endfacet
facet normal -0.7693237023767564 -0.6313676458223872 0.0975496630953519
outer loop
vertex -0.8055976798322071 -0.8055976798322106 15.852709660483846
vertex -4.944088369076361 3.332893009411933 10
vertex -1.213203435596423 -1.2132034355964265 10
endloop
endfacet
facet normal -0.7400244927637362 -0.607322405904937 0.2890038847413887
outer loop
vertex 0.4015555268543558 0.40155552685435225 21.480502970952692
vertex -3.045332701342492 4.601600985219898 21.480502970952692
vertex -4.4647947054675186 3.6531467967254407 15.852709660483846
endloop
endfacet
facet normal -0.7400244927637362 -0.607322405904937 0.2890038847413887
outer loop
vertex 0.4015555268543558 0.40155552685435225 21.480502970952692
vertex -4.4647947054675186 3.6531467967254407 15.852709660483846
vertex -0.8055976798322071 -0.8055976798322106 15.852709660483846
endloop
endfacet
facet normal -0.41617929375330776 -0.7786166943238848 0.46962840498754327
outer loop
vertex 5 -2.449086439982346 22.822101364352935
vertex 4.601600985219903 -3.045332701342492 21.480502970952692
vertex 5 -3.2582814112942775 21.480502970952692
endloop
endfacet
facet normal -0.6073224059049376 -0.7400244927637368 -0.289003884741386
outer loop
vertex 3.653146796725448 -4.4647947054675186 4.147290339516153
vertex -0.8055976798322071 -0.8055976798322106 4.147290339516153
vertex 0.08398986473773518 0.08398986473773162 0
endloop
endfacet
facet normal -0.6073224059049376 -0.7400244927637368 -0.289003884741386
outer loop
vertex 3.653146796725448 -4.4647947054675186 4.147290339516153
vertex 0.08398986473773518 0.08398986473773162 0
vertex 4.352091245538013 -3.4187504155915764 0
endloop
endfacet
facet normal -0.7400244927637355 -0.6073224059049379 -0.2890038847413887
outer loop
vertex -0.8055976798322071 -0.8055976798322106 4.147290339516153
vertex -4.4647947054675186 3.6531467967254407 4.147290339516153
vertex -3.4187504155915764 4.3520912455380065 0
endloop
endfacet
facet normal -0.7400244927637355 -0.6073224059049379 -0.2890038847413887
outer loop
vertex -0.8055976798322071 -0.8055976798322106 4.147290339516153
vertex -3.4187504155915764 4.3520912455380065 0
vertex 0.08398986473773518 0.08398986473773162 0
endloop
endfacet
facet normal -0.8777150804904933 -0.469148484714115 -0.09754966309535144
outer loop
vertex -4.944088369076361 3.332893009411933 10
vertex -5 3.4374963135585954 10
vertex -5 4.654445476088697 4.147290339516153
endloop
endfacet
facet normal -0.8777150804904933 -0.469148484714115 -0.09754966309535144
outer loop
vertex -4.944088369076361 3.332893009411933 10
vertex -5 4.654445476088697 4.147290339516153
vertex -4.4647947054675186 3.6531467967254407 4.147290339516153
endloop
endfacet
facet normal -0.8777150804904936 -0.46914848471411424 0.09754966309535139
outer loop
vertex -4.4647947054675186 3.6531467967254407 15.852709660483846
vertex -5 4.654445476088697 15.852709660483846
vertex -5 3.4374963135585954 10
endloop
endfacet
facet normal -0.8777150804904936 -0.46914848471411424 0.09754966309535139
outer loop
vertex -4.4647947054675186 3.6531467967254407 15.852709660483846
vertex -5 3.4374963135585954 10
vertex -4.944088369076361 3.332893009411933 10
endloop
endfacet
facet normal -0.4691484847141143 -0.8777150804904937 -0.09754966309535144
outer loop
vertex 3.4374963135586025 -5 10
vertex 3.33289300941194 -4.944088369076361 10
vertex 3.653146796725448 -4.4647947054675186 4.147290339516153
endloop
endfacet
facet normal -0.4691484847141143 -0.8777150804904937 -0.09754966309535144
outer loop
vertex 3.4374963135586025 -5 10
vertex 3.653146796725448 -4.4647947054675186 4.147290339516153
vertex 4.654445476088704 -5 4.147290339516153
endloop
endfacet
facet normal -0.46914848471411424 -0.8777150804904936 0.09754966309535223
outer loop
vertex 4.654445476088704 -5 15.852709660483846
vertex 3.653146796725448 -4.4647947054675186 15.852709660483846
vertex 3.33289300941194 -4.944088369076361 10
endloop
endfacet
facet normal -0.46914848471411424 -0.8777150804904936 0.09754966309535223
outer loop
vertex 4.654445476088704 -5 15.852709660483846
vertex 3.33289300941194 -4.944088369076361 10
vertex 3.4374963135586025 -5 10
endloop
endfacet
facet normal -0.45128125957753773 -0.8442878533761441 0.28900388474138855
outer loop
vertex 5 -3.2582814112942775 21.480502970952692
vertex 4.601600985219903 -3.045332701342492 21.480502970952692
vertex 3.653146796725448 -4.4647947054675186 15.852709660483846
endloop
endfacet
facet normal -0.45128125957753773 -0.8442878533761441 0.28900388474138855
outer loop
vertex 5 -3.2582814112942775 21.480502970952692
vertex 3.653146796725448 -4.4647947054675186 15.852709660483846
vertex 4.654445476088704 -5 15.852709660483846
endloop
endfacet
facet normal -0.45128125957753773 -0.8442878533761441 0.28900388474138855
outer loop
vertex 5 -3.2582814112942775 21.480502970952692
vertex 4.654445476088704 -5 15.852709660483846
vertex 5 -5 16.3922950745102
endloop
endfacet
facet normal -0.5600831069446378 -0.6824632404343082 0.46962840498754443
outer loop
vertex 2.109728574543593 2.1097285745435896 26
vertex 0.4015555268543558 0.40155552685435225 21.480502970952692
vertex 4.601600985219903 -3.045332701342492 21.480502970952692
endloop
endfacet
facet normal -0.5600831069446378 -0.6824632404343082 0.46962840498754443
outer loop
vertex 2.109728574543593 2.1097285745435896 26
vertex 4.601600985219903 -3.045332701342492 21.480502970952692
vertex 5 -2.449086439982346 22.822101364352935
endloop
endfacet
facet normal -0.5600831069446378 -0.6824632404343082 0.46962840498754443
outer loop
vertex 2.109728574543593 2.1097285745435896 26
vertex 5 -2.449086439982346 22.822101364352935
vertex 5 -0.2622558840666036 26
endloop
endfacet
facet normal -0.6824632404343082 -0.5600831069446378 0.46962840498754443
outer loop
vertex -0.2622558840666065 5 26
vertex -2.449086439982338 5 22.822101364352953
vertex -3.045332701342492 4.601600985219898 21.480502970952692
endloop
endfacet
facet normal -0.6824632404343082 -0.5600831069446378 0.46962840498754443
outer loop
vertex -0.2622558840666065 5 26
vertex -3.045332701342492 4.601600985219898 21.480502970952692
vertex 0.4015555268543558 0.40155552685435225 21.480502970952692
endloop
endfacet
facet normal -0.6824632404343082 -0.5600831069446378 0.46962840498754443
outer loop
vertex -0.2622558840666065 5 26
vertex 0.4015555268543558 0.40155552685435225 21.480502970952692
vertex 2.109728574543593 2.1097285745435896 26
endloop
endfacet
facet normal -0.8442878533761441 -0.45128125957753773 0.28900388474138855
outer loop
vertex -3.045332701342492 4.601600985219898 21.480502970952692
vertex -3.25828141129428 5 21.480502970952692
vertex -5 5 16.392295074510212
endloop
endfacet
facet normal -0.8442878533761441 -0.45128125957753773 0.28900388474138855
outer loop
vertex -3.045332701342492 4.601600985219898 21.480502970952692
vertex -5 5 16.392295074510212
vertex -5 4.654445476088697 15.852709660483846
endloop
endfacet
facet normal -0.8442878533761441 -0.45128125957753773 0.28900388474138855
outer loop
vertex -3.045332701342492 4.601600985219898 21.480502970952692
vertex -5 4.654445476088697 15.852709660483846
vertex -4.4647947054675186 3.6531467967254407 15.852709660483846
endloop
endfacet
facet normal -0.778616694323885 -0.4161792937533085 0.4696284049875423
outer loop
vertex -3.25828141129428 5 21.480502970952692
vertex -3.045332701342492 4.601600985219898 21.480502970952692
vertex -2.449086439982338 5 22.822101364352953
endloop
endfacet
facet normal -0.45128125957753773 -0.8442878533761441 -0.28900388474138855
outer loop
vertex 4.654445476088704 -5 4.147290339516153
vertex 3.653146796725448 -4.4647947054675186 4.147290339516153
vertex 4.352091245538013 -3.4187504155915764 0
endloop
endfacet
facet normal -0.45128125957753773 -0.8442878533761441 -0.28900388474138855
outer loop
vertex 4.654445476088704 -5 4.147290339516153
vertex 4.352091245538013 -3.4187504155915764 0
vertex 5 -3.765064859931516 0
endloop
endfacet
facet normal -0.45128125957753773 -0.8442878533761441 -0.28900388474138855
outer loop
vertex 4.654445476088704 -5 4.147290339516153
vertex 5 -3.765064859931516 0
vertex 5 -5 3.6077049254897995
endloop
endfacet
facet normal -0.844287853376144 -0.4512812595775377 -0.2890038847413882
outer loop
vertex -4.4647947054675186 3.6531467967254407 4.147290339516153
vertex -5 4.654445476088697 4.147290339516153
vertex -5 5 3.607704925489788
endloop
endfacet
facet normal -0.844287853376144 -0.4512812595775377 -0.2890038847413882
outer loop
vertex -4.4647947054675186 3.6531467967254407 4.147290339516153
vertex -5 5 3.607704925489788
vertex -3.7650648599315195 5 0
endloop
endfacet
facet normal -0.844287853376144 -0.4512812595775377 -0.2890038847413882
outer loop
vertex -4.4647947054675186 3.6531467967254407 4.147290339516153
vertex -3.7650648599315195 5 0
vertex -3.4187504155915764 4.3520912455380065 0
endloop
endfacet
facet normal 0 0 -1
outer loop
vertex 4.352091245538013 -3.4187504155915764 0
vertex 0.08398986473773518 0.08398986473773162 0
vertex -3.4187504155915764 4.3520912455380065 0
endloop
endfacet
facet normal 0 0 -1
outer loop
vertex 4.352091245538013 -3.4187504155915764 0
vertex -3.4187504155915764 4.3520912455380065 0
vertex -3.7650648599315195 5 0
endloop
endfacet
facet normal 0 0 -1
outer loop
vertex 4.352091245538013 -3.4187504155915764 0
vertex -3.7650648599315195 5 0
vertex 5 5 0
endloop
endfacet
facet normal 0 0 -1
outer loop
vertex 4.352091245538013 -3.4187504155915764 0
vertex 5 5 0
vertex 5 -3.765064859931516 0
endloop
endfacet
facet normal 0 -1 0
outer loop
vertex 4.654445476088704 -5 15.852709660483846
vertex 3.4374963135586025 -5 10
vertex 4.654445476088704 -5 4.147290339516153
endloop
endfacet
facet normal 0 -1 0
outer loop
vertex 4.654445476088704 -5 15.852709660483846
vertex 4.654445476088704 -5 4.147290339516153
vertex 5 -5 3.6077049254897995
endloop
endfacet
facet normal 0 -1 0
outer loop
vertex 4.654445476088704 -5 15.852709660483846
vertex 5 -5 3.6077049254897995
vertex 5 -5 16.3922950745102
endloop
endfacet
facet normal 0 0 1
outer loop
vertex 2.109728574543593 2.1097285745435896 26
vertex 5 -0.2622558840666036 26
vertex 5 5 26
endloop
endfacet
facet normal 0 0 1
outer loop
vertex 2.109728574543593 2.1097285745435896 26
vertex 5 5 26
vertex -0.2622558840666065 5 26
endloop
endfacet
facet normal -1 0 0
outer loop
vertex -5 4.654445476088697 4.147290339516153
vertex -5 3.4374963135585954 10
vertex -5 4.654445476088697 15.852709660483846
endloop
endfacet
facet normal -1 0 0
outer loop
vertex -5 4.654445476088697 4.147290339516153
vertex -5 4.654445476088697 15.852709660483846
vertex -5 5 16.392295074510212
endloop
endfacet
facet normal -1 0 0
outer loop
vertex -5 4.654445476088697 4.147290339516153
vertex -5 5 16.392295074510212
vertex -5 5 3.607704925489788
endloop
endfacet
facet normal 1 0 0
outer loop
vertex 5.7 5 0
vertex 5.7 5.7 0
vertex 5.7 5.7 40
endloop
endfacet
facet normal 1 0 0
outer loop
vertex 5.7 5 0
vertex 5.7 5.7 40
vertex 5.7 5 40
endloop
endfacet
facet normal 0 1 0
outer loop
vertex 5 5.7 0
vertex 5 5.7 40
vertex 5.7 5.7 40
endloop
endfacet
facet normal 0 1 0
outer loop
vertex 5 5.7 0
vertex 5.7 5.7 40
vertex 5.7 5.7 0
endloop
endfacet
facet normal 0 0 -1
outer loop
vertex 5 5 0
vertex 5 5.7 0
vertex 5.7 5.7 0
endloop
endfacet
facet normal 0 0 -1
outer loop
vertex 5 5 0
vertex 5.7 5.7 0
vertex 5.7 5 0
endloop
endfacet
facet normal 0 0 1
outer loop
vertex 5 5 40
vertex 5.7 5 40
vertex 5.7 5.7 40
endloop
endfacet
facet normal 0 0 1
outer loop
vertex 5 5 40
vertex 5.7 5.7 40
vertex 5 5.7 40
endloop
endfacet
facet normal -1 0 0
outer loop
vertex 5 5.7 40
vertex 5 5.7 30.835175620367124
vertex 5 5 30.75737729413968
endloop
endfacet
facet normal -1 0 0
outer loop
vertex 5 5.7 40
vertex 5 5 30.75737729413968
vertex 5 5 40
endloop
endfacet
facet normal 0 1 0
outer loop
vertex 3 5 26
vertex 3 5 22
vertex -2.9449429445932704 5 22
endloop
endfacet
facet normal 0 1 0
outer loop
vertex 3 5 26
vertex -2.9449429445932704 5 22
vertex -2.449086439982338 5 22.822101364352953
endloop
endfacet
facet normal 0 1 0
outer loop
vertex 3 5 26
vertex -2.449086439982338 5 22.822101364352953
vertex -1.5615439604048553 5 24.111876663723137
endloop
endfacet
facet normal 0 1 0
outer loop
vertex 3 5 26
vertex -1.5615439604048553 5 24.111876663723137
vertex -0.4573458969680855 5 25.45734589696825
endloop
endfacet
facet normal 0 1 0
outer loop
vertex 3 5 26
vertex -0.4573458969680855 5 25.45734589696825
vertex 0.20388004075087918 5 26
endloop
endfacet
facet normal 0 1 0
outer loop
vertex 3 5 21
vertex 3 5 14.5
vertex -5 5 14.5
endloop
endfacet
facet normal 0 1 0
outer loop
vertex 3 5 21
vertex -5 5 14.5
vertex -5 5 16.392295074510212
endloop
endfacet
facet normal 0 1 0
outer loop
vertex 3 5 21
vertex -5 5 16.392295074510212
vertex -3.4227599415488643 5 21
endloop
endfacet
facet normal 0 1 0
outer loop
vertex 3 5 13.5
vertex 3 5 7
vertex -5 5 7
endloop
endfacet
facet normal 0 1 0
outer loop
vertex 3 5 13.5
vertex -5 5 7
vertex -5 5 13.5
endloop
endfacet
facet normal 0 1 0
outer loop
vertex 3 5 6
vertex 3 5 0
vertex -3.7650648599315195 5 0
endloop
endfacet
facet normal 0 1 0
outer loop
vertex 3 5 6
vertex -3.7650648599315195 5 0
vertex -5 5 3.607704925489788
endloop
endfacet
facet normal 0 1 0
outer loop
vertex 3 5 6
vertex -5 5 3.607704925489788
vertex -5 5 6
endloop
endfacet
facet normal 0 0 -1
outer loop
vertex -8.507542983214178 5.700000000000001 0
vertex -8.438599000864162 5.000000000000001 0
vertex -9.43859900086416 5.000000000000001 0
endloop
endfacet
facet normal 0 0 -1
outer loop
vertex -8.507542983214178 5.700000000000001 0
vertex -9.43859900086416 5.000000000000001 0
vertex -9.507542983214176 5.700000000000001 0
endloop
endfacet
facet normal 0 0 -1
outer loop
vertex 5 5.7 0
vertex 5 5 0
vertex 3 5 0
endloop
endfacet
facet normal 0 0 -1
outer loop
vertex 5 5.7 0
vertex 3 5 0
vertex 3 5.700000000000001 0
endloop
endfacet
facet normal -1 0 0
outer loop
vertex 3 5.7 22
vertex 3 5 22
vertex 3 5 28.294716347168453
endloop
endfacet
facet normal -1 0 0
outer loop
vertex 3 5.7 22
vertex 3 5 28.294716347168453
vertex 3 5.7 28.383475817279393
endloop
endfacet
facet normal -1 0 0
outer loop
vertex 3 5.7 21
vertex 3 5.7 14.5
vertex 3 5 14.5
endloop
endfacet
facet normal -1 0 0
outer loop
vertex 3 5.7 21
vertex 3 5 14.5
vertex 3 5 21
endloop
endfacet
facet normal -1 0 0
outer loop
vertex 3 5.7 13.500000000000002
vertex 3 5.7 7
vertex 3 5 7
endloop
endfacet
facet normal -1 0 0
outer loop
vertex 3 5.7 13.500000000000002
vertex 3 5 7
vertex 3 5 13.5
endloop
endfacet
facet normal -1 0 0
outer loop
vertex 3 5.7 6
vertex 3 5.700000000000001 0
vertex 3 5 0
endloop
endfacet
facet normal -1 0 0
outer loop
vertex 3 5.7 6
vertex 3 5 0
vertex 3 5 6
endloop
endfacet
facet normal 0 1 0
outer loop
vertex 5.000000000000002 5.7 28.383475817279393
vertex 1.4312811129704843 5.7 28.383475817279393
vertex 3.3328930094119014 5.7 29.94408836907634
endloop
endfacet
facet normal 0 1 0
outer loop
vertex 5.000000000000002 5.7 28.383475817279393
vertex 3.3328930094119014 5.7 29.94408836907634
vertex 5 5.7 30.835175620367124
endloop
endfacet
facet normal 0 1 0
outer loop
vertex 3 5.7 28.383475817279393
vertex -0.5060966544098768 5.7 25.506096654409873
vertex -1.7935109737673514 5.7 25.506096654409873
endloop
endfacet
facet normal 0 1 0
outer loop
vertex 3 5.7 28.383475817279393
vertex -1.7935109737673514 5.7 25.506096654409873
vertex -1.2132034355964283 5.7 26.21320343559642
endloop
endfacet
facet normal 0 1 0
outer loop
vertex 3 5.7 28.383475817279393
vertex -1.2132034355964283 5.7 26.21320343559642
vertex 1.4312811129704843 5.7 28.383475817279393
endloop
endfacet
facet normal 0 1 0
outer loop
vertex -0.5060966544098768 5.7 25.506096654409873
vertex -3.383475817279388 5.7 22
vertex -4.670890136636854 5.7 22
endloop
endfacet
facet normal 0 1 0
outer loop
vertex -0.5060966544098768 5.7 25.506096654409873
vertex -4.670890136636854 5.7 22
vertex -1.7935109737673514 5.7 25.506096654409873
endloop
endfacet
facet normal 0 1 0
outer loop
vertex 5.000000000000002 5.7 28.383475817279393
vertex 5.000000000000001 5.7 22
vertex 3 5.7 22
endloop
endfacet
facet normal 0 1 0
outer loop
vertex 5.000000000000002 5.7 28.383475817279393
vertex 3 5.7 22
vertex 3 5.7 28.383475817279393
endloop
endfacet
facet normal 0 1 0
outer loop
vertex 5.000000000000001 5.7 22
vertex 5.000000000000001 5.7 21
vertex -5.300664484416299 5.7 21
endloop
endfacet
facet normal 0 1 0
outer loop
vertex 5.000000000000001 5.7 22
vertex -5.300664484416299 5.7 21
vertex -4.9440883690763755 5.7 21.66710699058803
endloop
endfacet
facet normal 0 1 0
outer loop
vertex 5.000000000000001 5.7 22
vertex -4.9440883690763755 5.7 21.66710699058803
vertex -4.670890136636854 5.7 22
endloop
endfacet
facet normal 0 1 0
outer loop
vertex -4.172236395762001 5.7 21
vertex -6.792506442827333 5.7 16.097819538587608
vertex -7.832471725418023 5.7 16.097819538587608
endloop
endfacet
facet normal 0 1 0
outer loop
vertex -4.172236395762001 5.7 21
vertex -7.832471725418023 5.7 16.097819538587608
vertex -7.716385975338598 5.7 16.4805029709527
endloop
endfacet
facet normal 0 1 0
outer loop
vertex -4.172236395762001 5.7 21
vertex -7.716385975338598 5.7 16.4805029709527
vertex -5.300664484416299 5.7 21
endloop
endfacet
facet normal 0 1 0
outer loop
vertex -6.792506442827333 5.7 16.097819538587608
vertex -7.27719970086088 5.7 14.5
vertex -8.31716498345159 5.7 14.5
endloop
endfacet
facet normal 0 1 0
outer loop
vertex -6.792506442827333 5.7 16.097819538587608
vertex -8.31716498345159 5.7 14.5
vertex -7.832471725418023 5.7 16.097819538587608
endloop
endfacet
facet normal 0 1 0
outer loop
vertex 5.000000000000001 5.7 21
vertex 5.000000000000001 5.7 14.5
vertex 3 5.7 14.5
endloop
endfacet
facet normal 0 1 0
outer loop
vertex 5.000000000000001 5.7 21
vertex 3 5.7 14.5
vertex 3 5.7 21
endloop
endfacet
facet normal 0 1 0
outer loop
vertex 5.000000000000001 5.7 14.5
vertex 5.000000000000001 5.7 13.5
vertex -8.620511667058937 5.7 13.5
endloop
endfacet
facet normal 0 1 0
outer loop
vertex 5.000000000000001 5.7 14.5
vertex -8.620511667058937 5.7 13.5
vertex -8.31716498345159 5.7 14.5
endloop
endfacet
facet normal 0 1 0
outer loop
vertex -7.580546384468223 5.7 13.5
vertex -8.44277313169368 5.7 10.657619338467722
vertex -9.442773131693682 5.7 10.657619338467722
endloop
endfacet
facet normal 0 1 0
outer loop
vertex -7.580546384468223 5.7 13.5
vertex -9.442773131693682 5.7 10.657619338467722
vertex -9.423558412096913 5.7 10.85270966048385
endloop
endfacet
facet normal 0 1 0
outer loop
vertex -7.580546384468223 5.7 13.5
vertex -9.423558412096913 5.7 10.85270966048385
vertex -8.620511667058937 5.7 13.5
endloop
endfacet
facet normal 0 1 0
outer loop
vertex -8.44277313169368 5.7 10.657619338467722
vertex -8.803017193285672 5.7 7.000000000000001
vertex -9.80301719328567 5.7 7.000000000000001
endloop
endfacet
facet normal 0 1 0
outer loop
vertex -8.44277313169368 5.7 10.657619338467722
vertex -9.80301719328567 5.7 7.000000000000001
vertex -9.442773131693682 5.7 10.657619338467722
endloop
endfacet
facet normal 0 1 0
outer loop
vertex 5.000000000000001 5.7 13.5
vertex 5 5.7 7.000000000000001
vertex 3 5.7 7
endloop
endfacet
facet normal 0 1 0
outer loop
vertex 5.000000000000001 5.7 13.5
vertex 3 5.7 7
vertex 3 5.7 13.500000000000002
endloop
endfacet
facet normal 0 1 0
outer loop
vertex 5 5.7 7.000000000000001
vertex 5 5.7 6.000000000000001
vertex -9.901508596642834 5.7 6.000000000000001
endloop
endfacet
facet normal 0 1 0
outer loop
vertex 5 5.7 7.000000000000001
vertex -9.901508596642834 5.7 6.000000000000001
vertex -9.80301719328567 5.7 7.000000000000001
endloop
endfacet
facet normal 0 1 0
outer loop
vertex -8.901508596642836 5.7 6.000000000000001
vertex -9 5.7 4.999999999999996
vertex -10 5.7 4.999999999999996
endloop
endfacet
facet normal 0 1 0
outer loop
vertex -8.901508596642836 5.7 6.000000000000001
vertex -10 5.7 4.999999999999996
vertex -9.901508596642834 5.7 6.000000000000001
endloop
endfacet
facet normal 0 1 0
outer loop
vertex -9 5.7 4.999999999999996
vertex -8.507542983214178 5.700000000000001 0
vertex -9.507542983214176 5.700000000000001 0
endloop
endfacet
facet normal 0 1 0
outer loop
vertex -9 5.7 4.999999999999996
vertex -9.507542983214176 5.700000000000001 0
vertex -10 5.7 4.999999999999996
endloop
endfacet
facet normal 0 1 0
outer loop
vertex 5 5.7 6.000000000000001
vertex 5 5.7 0
vertex 3 5.700000000000001 0
endloop
endfacet
facet normal 0 1 0
outer loop
vertex 5 5.7 6.000000000000001
vertex 3 5.700000000000001 0
vertex 3 5.7 6
endloop
endfacet
facet normal 0 -1 0
outer loop
vertex -8.438599000864162 5.000000000000001 0
vertex -8.931056017649984 5 4.999999999999996
vertex -9.931056017649984 5 4.999999999999996
endloop
endfacet
facet normal 0 -1 0
outer loop
vertex -8.438599000864162 5.000000000000001 0
vertex -9.931056017649984 5 4.999999999999996
vertex -9.43859900086416 5.000000000000001 0
endloop
endfacet
facet normal 0 -1 0
outer loop
vertex -8.931056017649984 5 4.999999999999996
vertex -8.83256461429282 5 6.000000000000001
vertex -9.832564614292819 5 6.000000000000001
endloop
endfacet
facet normal 0 -1 0
outer loop
vertex -8.931056017649984 5 4.999999999999996
vertex -9.832564614292819 5 6.000000000000001
vertex -9.931056017649984 5 4.999999999999996
endloop
endfacet
facet normal 0 -1 0
outer loop
vertex -5 5 6
vertex -5 5 7
vertex -9.734073210935655 5 7
endloop
endfacet
facet normal 0 -1 0
outer loop
vertex -5 5 6
vertex -9.734073210935655 5 7
vertex -9.832564614292819 5 6.000000000000001
endloop
endfacet
facet normal 0 -1 0
outer loop
vertex -8.734073210935657 5 7
vertex -8.37515388863241 5 10.64416903475
vertex -9.375153888632406 5 10.64416903475
endloop
endfacet
facet normal 0 -1 0
outer loop
vertex -8.734073210935657 5 7
vertex -9.375153888632406 5 10.64416903475
vertex -9.734073210935655 5 7
endloop
endfacet
facet normal 0 -1 0
outer loop
vertex -8.37515388863241 5 10.64416903475
vertex -7.508847036380663 5 13.5
vertex -8.548812318971372 5 13.5
endloop
endfacet
facet normal 0 -1 0
outer loop
vertex -8.37515388863241 5 10.64416903475
vertex -8.548812318971372 5 13.5
vertex -9.355939169035638 5 10.83925935676611
endloop
endfacet
facet normal 0 -1 0
outer loop
vertex -8.37515388863241 5 10.64416903475
vertex -9.355939169035638 5 10.83925935676611
vertex -9.375153888632406 5 10.64416903475
endloop
endfacet
facet normal 0 -1 0
outer loop
vertex -5 5 13.5
vertex -5 5 14.5
vertex -8.24546563536403 5 14.5
endloop
endfacet
facet normal 0 -1 0
outer loop
vertex -5 5 13.5
vertex -8.24546563536403 5 14.5
vertex -8.548812318971372 5 13.5
endloop
endfacet
facet normal 0 -1 0
outer loop
vertex -7.205500352773319 5 14.5
vertex -6.728810508644326 5 16.071435818780994
vertex -7.768775791235023 5 16.071435818780994
endloop
endfacet
facet normal 0 -1 0
outer loop
vertex -7.205500352773319 5 14.5
vertex -7.768775791235023 5 16.071435818780994
vertex -8.24546563536403 5 14.5
endloop
endfacet
facet normal 0 -1 0
outer loop
vertex -6.728810508644326 5 16.071435818780994
vertex -4.094438069534558 5 21
vertex -5.222866158188848 5 21
endloop
endfacet
facet normal 0 -1 0
outer loop
vertex -6.728810508644326 5 16.071435818780994
vertex -5.222866158188848 5 21
vertex -7.6526900411556 5 16.45411925114608
endloop
endfacet
facet normal 0 -1 0
outer loop
vertex -6.728810508644326 5 16.071435818780994
vertex -7.6526900411556 5 16.45411925114608
vertex -7.768775791235023 5 16.071435818780994
endloop
endfacet
facet normal 0 -1 0
outer loop
vertex -3.4227599415488643 5 21
vertex -3.25828141129428 5 21.480502970952692
vertex -4.9660319693572 5 21.480502970952692
endloop
endfacet
facet normal 0 -1 0
outer loop
vertex -3.4227599415488643 5 21
vertex -4.9660319693572 5 21.480502970952692
vertex -5.222866158188848 5 21
endloop
endfacet
facet normal 0 -1 0
outer loop
vertex -3.25828141129428 5 21.480502970952692
vertex -2.9449429445932704 5 22
vertex -4.582130666525906 5 22
endloop
endfacet
facet normal 0 -1 0
outer loop
vertex -3.25828141129428 5 21.480502970952692
vertex -4.582130666525906 5 22
vertex -4.8867635428012015 5 21.628803766248545
endloop
endfacet
facet normal 0 -1 0
outer loop
vertex -3.25828141129428 5 21.480502970952692
vertex -4.8867635428012015 5 21.628803766248545
vertex -4.9660319693572 5 21.480502970952692
endloop
endfacet
facet normal 0 -1 0
outer loop
vertex -3.2947163471684515 5 22
vertex -1.5615439604048553 5 24.111876663723137
vertex -0.2622558840666065 5 26
endloop
endfacet
facet normal 0 -1 0
outer loop
vertex -3.2947163471684515 5 22
vertex -0.2622558840666065 5 26
vertex -1.2994155032112746 5 26
endloop
endfacet
facet normal 0 -1 0
outer loop
vertex -3.2947163471684515 5 22
vertex -1.2994155032112746 5 26
vertex -4.582130666525906 5 22
endloop
endfacet
facet normal 0 -1 0
outer loop
vertex 0.20388004075087918 5 26
vertex 3 5 28.294716347168453
vertex 1.431281112970487 5 28.294716347168453
endloop
endfacet
facet normal 0 -1 0
outer loop
vertex 0.20388004075087918 5 26
vertex 1.431281112970487 5 28.294716347168453
vertex -1.1644526781547269 5 26.164452678154717
endloop
endfacet
facet normal 0 -1 0
outer loop
vertex 0.20388004075087918 5 26
vertex -1.1644526781547269 5 26.164452678154717
vertex -1.2994155032112746 5 26
endloop
endfacet
facet normal 0 -1 0
outer loop
vertex 5 5 26
vertex 5.000000000000002 5 28.294716347168453
vertex 3 5 28.294716347168453
endloop
endfacet
facet normal 0 -1 0
outer loop
vertex 5 5 26
vertex 3 5 28.294716347168453
vertex 3 5 26
endloop
endfacet
facet normal 0 -1 0
outer loop
vertex 5.000000000000002 5 28.294716347168453
vertex 5 5 30.75737729413968
vertex 3.3711962337514745 5 29.886763542801233
endloop
endfacet
facet normal 0 -1 0
outer loop
vertex 5.000000000000002 5 28.294716347168453
vertex 3.3711962337514745 5 29.886763542801233
vertex 1.431281112970487 5 28.294716347168453
endloop
endfacet
facet normal 0 0 -1
outer loop
vertex -4.094438069534558 5 21
vertex -4.172236395762001 5.7 21
vertex 3 5.7 21
endloop
endfacet
facet normal 0 0 -1
outer loop
vertex -4.094438069534558 5 21
vertex 3 5.7 21
vertex 3 5 21
endloop
endfacet
facet normal 0 0 1
outer loop
vertex -3.383475817279388 5.7 22
vertex -3.2947163471684515 5 22
vertex 3 5 22
endloop
endfacet
facet normal 0 0 1
outer loop
vertex -3.383475817279388 5.7 22
vertex 3 5 22
vertex 3 5.7 22
endloop
endfacet
facet normal 0 0 -1
outer loop
vertex -7.508847036380663 5 13.5
vertex -7.580546384468223 5.7 13.5
vertex 3 5.7 13.500000000000002
endloop
endfacet
facet normal 0 0 -1
outer loop
vertex -7.508847036380663 5 13.5
vertex 3 5.7 13.500000000000002
vertex 3 5 13.5
endloop
endfacet
facet normal 0 0 1
outer loop
vertex -7.27719970086088 5.7 14.5
vertex -7.205500352773319 5 14.5
vertex 3 5 14.5
endloop
endfacet
facet normal 0 0 1
outer loop
vertex -7.27719970086088 5.7 14.5
vertex 3 5 14.5
vertex 3 5.7 14.5
endloop
endfacet
facet normal 0 0 -1
outer loop
vertex -8.83256461429282 5 6.000000000000001
vertex -8.901508596642836 5.7 6.000000000000001
vertex 3 5.7 6
endloop
endfacet
facet normal 0 0 -1
outer loop
vertex -8.83256461429282 5 6.000000000000001
vertex 3 5.7 6
vertex 3 5 6
endloop
endfacet
facet normal 0 0 1
outer loop
vertex -8.803017193285672 5.7 7.000000000000001
vertex -8.734073210935657 5 7
vertex 3 5 7
endloop
endfacet
facet normal 0 0 1
outer loop
vertex -8.803017193285672 5.7 7.000000000000001
vertex 3 5 7
vertex 3 5.7 7
endloop
endfacet
facet normal 0.9904383506609418 0.09754966309534997 0.09754966309535362
outer loop
vertex -8.507542983214178 5.700000000000001 0
vertex -9 5.7 4.999999999999996
vertex -8.931056017649984 5 4.999999999999996
endloop
endfacet
facet normal 0.9904383506609418 0.09754966309534997 0.09754966309535362
outer loop
vertex -8.507542983214178 5.700000000000001 0
vertex -8.931056017649984 5 4.999999999999996
vertex -8.438599000864162 5.000000000000001 0
endloop
endfacet
facet normal 0.9904383506609422 0.09754966309535003 -0.09754966309534999
outer loop
vertex -8.901508596642836 5.7 6.000000000000001
vertex -8.83256461429282 5 6.000000000000001
vertex -8.931056017649984 5 4.999999999999996
endloop
endfacet
facet normal 0.9904383506609422 0.09754966309535003 -0.09754966309534999
outer loop
vertex -8.901508596642836 5.7 6.000000000000001
vertex -8.931056017649984 5 4.999999999999996
vertex -9 5.7 4.999999999999996
endloop
endfacet
facet normal 0.9904383506609422 0.09754966309535003 -0.09754966309534999
outer loop
vertex -8.44277313169368 5.7 10.657619338467722
vertex -8.37515388863241 5 10.64416903475
vertex -8.734073210935657 5 7
endloop
endfacet
facet normal 0.9904383506609422 0.09754966309535003 -0.09754966309534999
outer loop
vertex -8.44277313169368 5.7 10.657619338467722
vertex -8.734073210935657 5 7
vertex -8.803017193285672 5.7 7.000000000000001
endloop
endfacet
facet normal 0.9523763602892679 0.09754966309535257 -0.2889002104397811
outer loop
vertex -7.580546384468223 5.7 13.5
vertex -7.508847036380663 5 13.5
vertex -8.37515388863241 5 10.64416903475
endloop
endfacet
facet normal 0.9523763602892679 0.09754966309535257 -0.2889002104397811
outer loop
vertex -7.580546384468223 5.7 13.5
vertex -8.37515388863241 5 10.64416903475
vertex -8.44277313169368 5.7 10.657619338467722
endloop
endfacet
facet normal 0.9523763602892679 0.09754966309535257 -0.2889002104397811
outer loop
vertex -6.792506442827333 5.7 16.097819538587608
vertex -6.728810508644326 5 16.071435818780994
vertex -7.205500352773319 5 14.5
endloop
endfacet
facet normal 0.9523763602892679 0.09754966309535257 -0.2889002104397811
outer loop
vertex -6.792506442827333 5.7 16.097819538587608
vertex -7.205500352773319 5 14.5
vertex -7.27719970086088 5.7 14.5
endloop
endfacet
facet normal 0.8777150804904944 0.09754966309535136 -0.4691484847141129
outer loop
vertex -6.792506442827333 5.7 16.097819538587608
vertex -4.172236395762001 5.7 21
vertex -4.094438069534558 5 21
endloop
endfacet
facet normal 0.8777150804904944 0.09754966309535136 -0.4691484847141129
outer loop
vertex -6.792506442827333 5.7 16.097819538587608
vertex -4.094438069534558 5 21
vertex -6.728810508644326 5 16.071435818780994
endloop
endfacet
facet normal 0.7693237023767555 0.0975496630953519 -0.6313676458223882
outer loop
vertex -3.383475817279388 5.7 22
vertex -0.5060966544098768 5.7 25.506096654409873
vertex -0.4573458969680855 5 25.45734589696825
endloop
endfacet
facet normal 0.7693237023767555 0.0975496630953519 -0.6313676458223882
outer loop
vertex -3.383475817279388 5.7 22
vertex -0.4573458969680855 5 25.45734589696825
vertex -3.2947163471684515 5 22
endloop
endfacet
facet normal 0.6313676458223872 0.0975496630953519 -0.7693237023767564
outer loop
vertex -0.5060966544098768 5.7 25.506096654409873
vertex 3 5.7 28.383475817279393
vertex 3 5 28.294716347168453
endloop
endfacet
facet normal 0.6313676458223872 0.0975496630953519 -0.7693237023767564
outer loop
vertex -0.5060966544098768 5.7 25.506096654409873
vertex 3 5 28.294716347168453
vertex -0.4573458969680855 5 25.45734589696825
endloop
endfacet
facet normal -0.9904383506609422 -0.09754966309535007 0.09754966309534999
outer loop
vertex -9.931056017649984 5 4.999999999999996
vertex -9.355939169035638 5 10.83925935676611
vertex -9.423558412096913 5.7 10.85270966048385
endloop
endfacet
facet normal -0.9904383506609422 -0.09754966309535007 0.09754966309534999
outer loop
vertex -9.931056017649984 5 4.999999999999996
vertex -9.423558412096913 5.7 10.85270966048385
vertex -10 5.7 4.999999999999996
endloop
endfacet
facet normal -0.9523763602892679 -0.09754966309535251 0.2889002104397811
outer loop
vertex -9.355939169035638 5 10.83925935676611
vertex -7.6526900411556 5 16.45411925114608
vertex -7.716385975338598 5.7 16.4805029709527
endloop
endfacet
facet normal -0.9523763602892679 -0.09754966309535251 0.2889002104397811
outer loop
vertex -9.355939169035638 5 10.83925935676611
vertex -7.716385975338598 5.7 16.4805029709527
vertex -9.423558412096913 5.7 10.85270966048385
endloop
endfacet
facet normal -0.8777150804904937 -0.0975496630953482 0.4691484847141148
outer loop
vertex -7.6526900411556 5 16.45411925114608
vertex -4.8867635428012015 5 21.628803766248545
vertex -4.9440883690763755 5.7 21.66710699058803
endloop
endfacet
facet normal -0.8777150804904937 -0.0975496630953482 0.4691484847141148
outer loop
vertex -7.6526900411556 5 16.45411925114608
vertex -4.9440883690763755 5.7 21.66710699058803
vertex -7.716385975338598 5.7 16.4805029709527
endloop
endfacet
facet normal -0.7693237023767571 -0.0975496630953519 0.6313676458223862
outer loop
vertex -4.8867635428012015 5 21.628803766248545
vertex -1.1644526781547269 5 26.164452678154717
vertex -1.2132034355964283 5.7 26.21320343559642
endloop
endfacet
facet normal -0.7693237023767571 -0.0975496630953519 0.6313676458223862
outer loop
vertex -4.8867635428012015 5 21.628803766248545
vertex -1.2132034355964283 5.7 26.21320343559642
vertex -4.9440883690763755 5.7 21.66710699058803
endloop
endfacet
facet normal -0.6313676458223872 -0.0975496630953519 0.7693237023767564
outer loop
vertex -1.1644526781547269 5 26.164452678154717
vertex 3.3711962337514745 5 29.886763542801233
vertex 3.3328930094119014 5.7 29.94408836907634
endloop
endfacet
facet normal -0.6313676458223872 -0.0975496630953519 0.7693237023767564
outer loop
vertex -1.1644526781547269 5 26.164452678154717
vertex 3.3328930094119014 5.7 29.94408836907634
vertex -1.2132034355964283 5.7 26.21320343559642
endloop
endfacet
facet normal -0.9904383506609422 -0.09754966309535001 -0.09754966309535007
outer loop
vertex -9.43859900086416 5.000000000000001 0
vertex -9.931056017649984 5 4.999999999999996
vertex -10 5.7 4.999999999999996
endloop
endfacet
facet normal -0.9904383506609422 -0.09754966309535001 -0.09754966309535007
outer loop
vertex -9.43859900086416 5.000000000000001 0
vertex -10 5.7 4.999999999999996
vertex -9.507542983214176 5.700000000000001 0
endloop
endfacet
facet normal -0.469148484714115 -0.09754966309535223 0.8777150804904933
outer loop
vertex 3.3711962337514745 5 29.886763542801233
vertex 5 5 30.75737729413968
vertex 5 5.7 30.835175620367124
endloop
endfacet
facet normal -0.469148484714115 -0.09754966309535223 0.8777150804904933
outer loop
vertex 3.3711962337514745 5 29.886763542801233
vertex 5 5.7 30.835175620367124
vertex 3.3328930094119014 5.7 29.94408836907634
endloop
endfacet
facet normal 0 -1 0
outer loop
vertex 5.7 5 40
vertex 5 5 40
vertex 5 5 30.835175620367124
endloop
endfacet
facet normal 0 -1 0
outer loop
vertex 5.7 5 40
vertex 5 5 30.835175620367124
vertex 5.7 5 30.75737729413968
endloop
endfacet
facet normal 1 0 0
outer loop
vertex 5 3 0
vertex 5 3 6
vertex 5 -5 6
endloop
endfacet
facet normal 1 0 0
outer loop
vertex 5 3 0
vertex 5 -5 6
vertex 5 -5 3.6077049254897995
endloop
endfacet
facet normal 1 0 0
outer loop
vertex 5 3 0
vertex 5 -5 3.6077049254897995
vertex 5 -3.765064859931516 0
endloop
endfacet
facet normal 1 0 0
outer loop
vertex 5 3 7
vertex 5 3 13.5
vertex 5 -5 13.5
endloop
endfacet
facet normal 1 0 0
outer loop
vertex 5 3 7
vertex 5 -5 13.5
vertex 5 -5 7
endloop
endfacet
facet normal 1 0 0
outer loop
vertex 5 3 14.5
vertex 5 3 21
vertex 5 -3.4227599415488617 21
endloop
endfacet
facet normal 1 0 0
outer loop
vertex 5 3 14.5
vertex 5 -3.4227599415488617 21
vertex 5 -5 16.3922950745102
endloop
endfacet
facet normal 1 0 0
outer loop
vertex 5 3 14.5
vertex 5 -5 16.3922950745102
vertex 5 -5 14.5
endloop
endfacet
facet normal 1 0 0
outer loop
vertex 5 3 22
vertex 5 3 26
vertex 5 0.09572631349137106 26
endloop
endfacet
facet normal 1 0 0
outer loop
vertex 5 3 22
vertex 5 0.09572631349137106 26
vertex 5 -0.5060966544097364 25.50609665441
endloop
endfacet
facet normal 1 0 0
outer loop
vertex 5 3 22
vertex 5 -0.5060966544097364 25.50609665441
vertex 5 -1.1007169666294785 24.781549707584027
endloop
endfacet
facet normal 1 0 0
outer loop
vertex 5 3 22
vertex 5 -1.1007169666294785 24.781549707584027
vertex 5 -2.449086439982346 22.822101364352935
endloop
endfacet
facet normal 1 0 0
outer loop
vertex 5 3 22
vertex 5 -2.449086439982346 22.822101364352935
vertex 5 -2.9449429445932678 22
endloop
endfacet
facet normal 0 0 -1
outer loop
vertex 5 -8.507542983214178 0
vertex 5.699999999999999 -8.438599000864162 -4.286263797015729e-17
vertex 5.699999999999999 -9.43859900086416 -4.286263797015729e-17
endloop
endfacet
facet normal 0 0 -1
outer loop
vertex 5 -8.507542983214178 0
vertex 5.699999999999999 -9.43859900086416 -4.286263797015729e-17
vertex 5 -9.507542983214176 0
endloop
endfacet
facet normal 0 0 -1
outer loop
vertex 5 5 0
vertex 5.7 5 0
vertex 5.699999999999999 3 -4.286263797015729e-17
endloop
endfacet
facet normal 0 0 -1
outer loop
vertex 5 5 0
vertex 5.699999999999999 3 -4.286263797015729e-17
vertex 5 3 0
endloop
endfacet
facet normal 0 -1 0
outer loop
vertex 5.699999999999999 3 -4.286263797015729e-17
vertex 5.7 3 6
vertex 5 3 6
endloop
endfacet
facet normal 0 -1 0
outer loop
vertex 5.699999999999999 3 -4.286263797015729e-17
vertex 5 3 6
vertex 5 3 0
endloop
endfacet
facet normal 0 -1 0
outer loop
vertex 5.7 3 7
vertex 5.7 3 13.500000000000002
vertex 5 3 13.5
endloop
endfacet
facet normal 0 -1 0
outer loop
vertex 5.7 3 7
vertex 5 3 13.5
vertex 5 3 7
endloop
endfacet
facet normal 0 -1 0
outer loop
vertex 5.700000000000001 3 14.5
vertex 5.700000000000001 3 21
vertex 5 3 21
endloop
endfacet
facet normal 0 -1 0
outer loop
vertex 5.700000000000001 3 14.5
vertex 5 3 21
vertex 5 3 14.5
endloop
endfacet
facet normal 0 -1 0
outer loop
vertex 5.700000000000001 3 22
vertex 5.700000000000001 3 28.294716347168453
vertex 5.000000000000002 3 28.383475817279393
endloop
endfacet
facet normal 0 -1 0
outer loop
vertex 5.700000000000001 3 22
vertex 5.000000000000002 3 28.383475817279393
vertex 5 3 22
endloop
endfacet
facet normal -1 0 0
outer loop
vertex 5 5 28.383475817279393
vertex 5 1.4312811129704806 28.383475817279393
vertex 5 3.3328930094118996 29.94408836907634
endloop
endfacet
facet normal -1 0 0
outer loop
vertex 5 5 28.383475817279393
vertex 5 3.3328930094118996 29.94408836907634
vertex 5 5 30.835175620367124
endloop
endfacet
facet normal -1 0 0
outer loop
vertex 5.000000000000002 3 28.383475817279393
vertex 5 0.09572631349137106 26
vertex 5 -1.388174973322216 26
endloop
endfacet
facet normal -1 0 0
outer loop
vertex 5.000000000000002 3 28.383475817279393
vertex 5 -1.388174973322216 26
vertex 5 -1.21320343559643 26.21320343559642
endloop
endfacet
facet normal -1 0 0
outer loop
vertex 5.000000000000002 3 28.383475817279393
vertex 5 -1.21320343559643 26.21320343559642
vertex 5 1.4312811129704806 28.383475817279393
endloop
endfacet
facet normal -1 0 0
outer loop
vertex 5 5 28.383475817279393
vertex 5 5 26
vertex 5 3 26
endloop
endfacet
facet normal -1 0 0
outer loop
vertex 5 5 28.383475817279393
vertex 5 3 26
vertex 5.000000000000002 3 28.383475817279393
endloop
endfacet
facet normal -1 0 0
outer loop
vertex 5 -0.2622558840666036 26
vertex 5 -1.1007169666294785 24.781549707584027
vertex 5 -3.3834758172793897 22
endloop
endfacet
facet normal -1 0 0
outer loop
vertex 5 -0.2622558840666036 26
vertex 5 -3.3834758172793897 22
vertex 5 -4.670890136636856 22
endloop
endfacet
facet normal -1 0 0
outer loop
vertex 5 -0.2622558840666036 26
vertex 5 -4.670890136636856 22
vertex 5 -1.388174973322216 26
endloop
endfacet
facet normal -1 0 0
outer loop
vertex 5 -2.9449429445932678 22
vertex 5 -3.2582814112942775 21.480502970952692
vertex 5 -5.043830295584616 21.48050297095275
endloop
endfacet
facet normal -1 0 0
outer loop
vertex 5 -2.9449429445932678 22
vertex 5 -5.043830295584616 21.48050297095275
vertex 5 -4.944088369076377 21.66710699058803
endloop
endfacet
facet normal -1 0 0
outer loop
vertex 5 -2.9449429445932678 22
vertex 5 -4.944088369076377 21.66710699058803
vertex 5 -4.670890136636856 22
endloop
endfacet
facet normal -1 0 0
outer loop
vertex 5 -3.2582814112942775 21.480502970952692
vertex 5 -3.4227599415488617 21
vertex 5 -5.300664484416301 21
endloop
endfacet
facet normal -1 0 0
outer loop
vertex 5 -3.2582814112942775 21.480502970952692
vertex 5 -5.300664484416301 21
vertex 5 -5.043830295584616 21.48050297095275
endloop
endfacet
facet normal -1 0 0
outer loop
vertex 5 -4.172236395762003 21
vertex 5 -6.792506442827335 16.097819538587608
vertex 5 -7.832471725418025 16.097819538587608
endloop
endfacet
facet normal -1 0 0
outer loop
vertex 5 -4.172236395762003 21
vertex 5 -7.832471725418025 16.097819538587608
vertex 5 -7.7163859753386 16.4805029709527
endloop
endfacet
facet normal -1 0 0
outer loop
vertex 5 -4.172236395762003 21
vertex 5 -7.7163859753386 16.4805029709527
vertex 5 -5.300664484416301 21
endloop
endfacet
facet normal -1 0 0
outer loop
vertex 5 -6.792506442827335 16.097819538587608
vertex 5 -7.27719970086088 14.5
vertex 5 -8.31716498345159 14.5
endloop
endfacet
facet normal -1 0 0
outer loop
vertex 5 -6.792506442827335 16.097819538587608
vertex 5 -8.31716498345159 14.5
vertex 5 -7.832471725418025 16.097819538587608
endloop
endfacet
facet normal -1 0 0
outer loop
vertex 5 -5 14.5
vertex 5 -5 13.5
vertex 5 -8.620511667058937 13.5
endloop
endfacet
facet normal -1 0 0
outer loop
vertex 5 -5 14.5
vertex 5 -8.620511667058937 13.5
vertex 5 -8.31716498345159 14.5
endloop
endfacet
facet normal -1 0 0
outer loop
vertex 5 -7.580546384468223 13.5
vertex 5 -8.44277313169368 10.657619338467722
vertex 5 -9.442773131693682 10.657619338467722
endloop
endfacet
facet normal -1 0 0
outer loop
vertex 5 -7.580546384468223 13.5
vertex 5 -9.442773131693682 10.657619338467722
vertex 5 -9.423558412096913 10.85270966048385
endloop
endfacet
facet normal -1 0 0
outer loop
vertex 5 -7.580546384468223 13.5
vertex 5 -9.423558412096913 10.85270966048385
vertex 5 -8.620511667058937 13.5
endloop
endfacet
facet normal -1 0 0
outer loop
vertex 5 -8.44277313169368 10.657619338467722
vertex 5 -8.803017193285672 7
vertex 5 -9.80301719328567 7
endloop
endfacet
facet normal -1 0 0
outer loop
vertex 5 -8.44277313169368 10.657619338467722
vertex 5 -9.80301719328567 7
vertex 5 -9.442773131693682 10.657619338467722
endloop
endfacet
facet normal -1 0 0
outer loop
vertex 5 -5 7
vertex 5 -5 6
vertex 5 -9.901508596642834 6
endloop
endfacet
facet normal -1 0 0
outer loop
vertex 5 -5 7
vertex 5 -9.901508596642834 6
vertex 5 -9.80301719328567 7
endloop
endfacet
facet normal -1 0 0
outer loop
vertex 5 -8.901508596642836 6
vertex 5 -9 4.999999999999995
vertex 5 -10 4.999999999999995
endloop
endfacet
facet normal -1 0 0
outer loop
vertex 5 -8.901508596642836 6
vertex 5 -10 4.999999999999995
vertex 5 -9.901508596642834 6
endloop
endfacet
facet normal -1 0 0
outer loop
vertex 5 -9 4.999999999999995
vertex 5 -8.507542983214178 0
vertex 5 -9.507542983214176 0
endloop
endfacet
facet normal -1 0 0
outer loop
vertex 5 -9 4.999999999999995
vertex 5 -9.507542983214176 0
vertex 5 -10 4.999999999999995
endloop
endfacet
facet normal 1 0 0
outer loop
vertex 5.699999999999999 -8.438599000864162 -4.286263797015729e-17
vertex 5.7 -8.931056017649984 4.999999999999995
vertex 5.7 -9.931056017649984 4.999999999999995
endloop
endfacet
facet normal 1 0 0
outer loop
vertex 5.699999999999999 -8.438599000864162 -4.286263797015729e-17
vertex 5.7 -9.931056017649984 4.999999999999995
vertex 5.699999999999999 -9.43859900086416 -4.286263797015729e-17
endloop
endfacet
facet normal 1 0 0
outer loop
vertex 5.7 -8.931056017649984 4.999999999999995
vertex 5.7 -8.83256461429282 6
vertex 5.7 -9.83256461429282 6
endloop
endfacet
facet normal 1 0 0
outer loop
vertex 5.7 -8.931056017649984 4.999999999999995
vertex 5.7 -9.83256461429282 6
vertex 5.7 -9.931056017649984 4.999999999999995
endloop
endfacet
facet normal 1 0 0
outer loop
vertex 5.7 5 0
vertex 5.7 5 6
vertex 5.7 3 6
endloop
endfacet
facet normal 1 0 0
outer loop
vertex 5.7 5 0
vertex 5.7 3 6
vertex 5.699999999999999 3 -4.286263797015729e-17
endloop
endfacet
facet normal 1 0 0
outer loop
vertex 5.7 5 6
vertex 5.7 5 7
vertex 5.7 -9.734073210935655 7
endloop
endfacet
facet normal 1 0 0
outer loop
vertex 5.7 5 6
vertex 5.7 -9.734073210935655 7
vertex 5.7 -9.83256461429282 6
endloop
endfacet
facet normal 1 0 0
outer loop
vertex 5.7 -8.734073210935657 7
vertex 5.7 -8.37515388863241 10.64416903475
vertex 5.7 -9.375153888632406 10.64416903475
endloop
endfacet
facet normal 1 0 0
outer loop
vertex 5.7 -8.734073210935657 7
vertex 5.7 -9.375153888632406 10.64416903475
vertex 5.7 -9.734073210935655 7
endloop
endfacet
facet normal 1 0 0
outer loop
vertex 5.7 -8.37515388863241 10.64416903475
vertex 5.7 -7.508847036380663 13.5
vertex 5.7 -8.548812318971372 13.5
endloop
endfacet
facet normal 1 0 0
outer loop
vertex 5.7 -8.37515388863241 10.64416903475
vertex 5.7 -8.548812318971372 13.5
vertex 5.7 -9.355939169035638 10.83925935676611
endloop
endfacet
facet normal 1 0 0
outer loop
vertex 5.7 -8.37515388863241 10.64416903475
vertex 5.7 -9.355939169035638 10.83925935676611
vertex 5.7 -9.375153888632406 10.64416903475
endloop
endfacet
facet normal 1 0 0
outer loop
vertex 5.7 5 7
vertex 5.7 5 13.5
vertex 5.7 3 13.500000000000002
endloop
endfacet
facet normal 1 0 0
outer loop
vertex 5.7 5 7
vertex 5.7 3 13.500000000000002
vertex 5.7 3 7
endloop
endfacet
facet normal 1 0 0
outer loop
vertex 5.7 5 13.5
vertex 5.7 5 14.5
vertex 5.7 -8.24546563536403 14.5
endloop
endfacet
facet normal 1 0 0
outer loop
vertex 5.7 5 13.5
vertex 5.7 -8.24546563536403 14.5
vertex 5.7 -8.548812318971372 13.5
endloop
endfacet
facet normal 1 0 0
outer loop
vertex 5.7 -7.205500352773319 14.5
vertex 5.7 -6.728810508644328 16.071435818780994
vertex 5.7 -7.768775791235025 16.071435818780994
endloop
endfacet
facet normal 1 0 0
outer loop
vertex 5.7 -7.205500352773319 14.5
vertex 5.7 -7.768775791235025 16.071435818780994
vertex 5.7 -8.24546563536403 14.5
endloop
endfacet
facet normal 1 0 0
outer loop
vertex 5.7 -6.728810508644328 16.071435818780994
vertex 5.7 -4.09443806953456 21
vertex 5.7 -5.222866158188849 21
endloop
endfacet
facet normal 1 0 0
outer loop
vertex 5.7 -6.728810508644328 16.071435818780994
vertex 5.7 -5.222866158188849 21
vertex 5.7 -7.652690041155601 16.45411925114608
endloop
endfacet
facet normal 1 0 0
outer loop
vertex 5.7 -6.728810508644328 16.071435818780994
vertex 5.7 -7.652690041155601 16.45411925114608
vertex 5.7 -7.768775791235025 16.071435818780994
endloop
endfacet
facet normal 1 0 0
outer loop
vertex 5.7 5 14.5
vertex 5.7 5 21
vertex 5.700000000000001 3 21
endloop
endfacet
facet normal 1 0 0
outer loop
vertex 5.7 5 14.5
vertex 5.700000000000001 3 21
vertex 5.700000000000001 3 14.5
endloop
endfacet
facet normal 1 0 0
outer loop
vertex 5.7 5 21
vertex 5.7 5 22
vertex 5.7 -4.582130666525908 22
endloop
endfacet
facet normal 1 0 0
outer loop
vertex 5.7 5 21
vertex 5.7 -4.582130666525908 22
vertex 5.7 -4.886763542801203 21.628803766248545
endloop
endfacet
facet normal 1 0 0
outer loop
vertex 5.7 5 21
vertex 5.7 -4.886763542801203 21.628803766248545
vertex 5.7 -5.222866158188849 21
endloop
endfacet
facet normal 1 0 0
outer loop
vertex 5.7 -3.2947163471684533 22
vertex 5.7 -0.4573458969681763 25.45734589696818
vertex 5.7 -1.744760216325639 25.45734589696818
endloop
endfacet
facet normal 1 0 0
outer loop
vertex 5.7 -3.2947163471684533 22
vertex 5.7 -1.744760216325639 25.45734589696818
vertex 5.7 -4.582130666525908 22
endloop
endfacet
facet normal 1 0 0
outer loop
vertex 5.7 -0.4573458969681763 25.45734589696818
vertex 5.700000000000001 3 28.294716347168453
vertex 5.7 1.4312811129704868 28.294716347168453
endloop
endfacet
facet normal 1 0 0
outer loop
vertex 5.7 -0.4573458969681763 25.45734589696818
vertex 5.7 1.4312811129704868 28.294716347168453
vertex 5.7 -1.1644526781547286 26.164452678154717
endloop
endfacet
facet normal 1 0 0
outer loop
vertex 5.7 -0.4573458969681763 25.45734589696818
vertex 5.7 -1.1644526781547286 26.164452678154717
vertex 5.7 -1.744760216325639 25.45734589696818
endloop
endfacet
facet normal 1 0 0
outer loop
vertex 5.7 5 22
vertex 5.7 5 28.294716347168453
vertex 5.700000000000001 3 28.294716347168453
endloop
endfacet
facet normal 1 0 0
outer loop
vertex 5.7 5 22
vertex 5.700000000000001 3 28.294716347168453
vertex 5.700000000000001 3 22
endloop
endfacet
facet normal 1 0 0
outer loop
vertex 5.7 5 28.294716347168453
vertex 5.7 5 30.75737729413968
vertex 5.7 3.3711962337514727 29.886763542801233
endloop
endfacet
facet normal 1 0 0
outer loop
vertex 5.7 5 28.294716347168453
vertex 5.7 3.3711962337514727 29.886763542801233
vertex 5.7 1.4312811129704868 28.294716347168453
endloop
endfacet
facet normal 0 0 -1
outer loop
vertex 5.7 -4.09443806953456 21
vertex 5 -4.172236395762003 21
vertex 5 3 21
endloop
endfacet
facet normal 0 0 -1
outer loop
vertex 5.7 -4.09443806953456 21
vertex 5 3 21
vertex 5.700000000000001 3 21
endloop
endfacet
facet normal 0 0 1
outer loop
vertex 5 -3.3834758172793897 22
vertex 5.7 -3.2947163471684533 22
vertex 5.700000000000001 3 22
endloop
endfacet
facet normal 0 0 1
outer loop
vertex 5 -3.3834758172793897 22
vertex 5.700000000000001 3 22
vertex 5 3 22
endloop
endfacet
facet normal 0 0 -1
outer loop
vertex 5.7 -7.508847036380663 13.5
vertex 5 -7.580546384468223 13.5
vertex 5 3 13.5
endloop
endfacet
facet normal 0 0 -1
outer loop
vertex 5.7 -7.508847036380663 13.5
vertex 5 3 13.5
vertex 5.7 3 13.500000000000002
endloop
endfacet
facet normal 0 0 1
outer loop
vertex 5 -7.27719970086088 14.5
vertex 5.7 -7.205500352773319 14.5
vertex 5.700000000000001 3 14.5
endloop
endfacet
facet normal 0 0 1
outer loop
vertex 5 -7.27719970086088 14.5
vertex 5.700000000000001 3 14.5
vertex 5 3 14.5
endloop
endfacet
facet normal 0 0 -1
outer loop
vertex 5.7 -8.83256461429282 6
vertex 5 -8.901508596642836 6
vertex 5 3 6
endloop
endfacet
facet normal 0 0 -1
outer loop
vertex 5.7 -8.83256461429282 6
vertex 5 3 6
vertex 5.7 3 6
endloop
endfacet
facet normal 0 0 1
outer loop
vertex 5 -8.803017193285672 7
vertex 5.7 -8.734073210935657 7
vertex 5.7 3 7
endloop
endfacet
facet normal 0 0 1
outer loop
vertex 5 -8.803017193285672 7
vertex 5.7 3 7
vertex 5 3 7
endloop
endfacet
facet normal -0.09754966309535001 0.9904383506609418 0.09754966309535365
outer loop
vertex 5 -8.507542983214178 0
vertex 5 -9 4.999999999999995
vertex 5.7 -8.931056017649984 4.999999999999995
endloop
endfacet
facet normal -0.09754966309535001 0.9904383506609418 0.09754966309535365
outer loop
vertex 5 -8.507542983214178 0
vertex 5.7 -8.931056017649984 4.999999999999995
vertex 5.699999999999999 -8.438599000864162 -4.286263797015729e-17
endloop
endfacet
facet normal -0.09754966309535015 0.9904383506609422 -0.09754966309534992
outer loop
vertex 5 -8.901508596642836 6
vertex 5.7 -8.83256461429282 6
vertex 5.7 -8.931056017649984 4.999999999999995
endloop
endfacet
facet normal -0.09754966309535015 0.9904383506609422 -0.09754966309534992
outer loop
vertex 5 -8.901508596642836 6
vertex 5.7 -8.931056017649984 4.999999999999995
vertex 5 -9 4.999999999999995
endloop
endfacet
facet normal -0.09754966309535015 0.9904383506609422 -0.09754966309534992
outer loop
vertex 5 -8.44277313169368 10.657619338467722
vertex 5.7 -8.37515388863241 10.64416903475
vertex 5.7 -8.734073210935657 7
endloop
endfacet
facet normal -0.09754966309535015 0.9904383506609422 -0.09754966309534992
outer loop
vertex 5 -8.44277313169368 10.657619338467722
vertex 5.7 -8.734073210935657 7
vertex 5 -8.803017193285672 7
endloop
endfacet
facet normal -0.09754966309535247 0.9523763602892679 -0.2889002104397811
outer loop
vertex 5.7 -6.728810508644328 16.071435818780994
vertex 5.7 -7.205500352773319 14.5
vertex 5 -7.27719970086088 14.5
endloop
endfacet
facet normal -0.09754966309535247 0.9523763602892679 -0.2889002104397811
outer loop
vertex 5.7 -6.728810508644328 16.071435818780994
vertex 5 -7.27719970086088 14.5
vertex 5 -6.792506442827335 16.097819538587608
endloop
endfacet
facet normal -0.09754966309535247 0.9523763602892679 -0.2889002104397811
outer loop
vertex 5.7 -8.37515388863241 10.64416903475
vertex 5 -8.44277313169368 10.657619338467722
vertex 5 -7.580546384468223 13.5
endloop
endfacet
facet normal -0.09754966309535247 0.9523763602892679 -0.2889002104397811
outer loop
vertex 5.7 -8.37515388863241 10.64416903475
vertex 5 -7.580546384468223 13.5
vertex 5.7 -7.508847036380663 13.5
endloop
endfacet
facet normal -0.09754966309535139 0.8777150804904952 -0.4691484847141115
outer loop
vertex 5 -6.792506442827335 16.097819538587608
vertex 5 -4.172236395762003 21
vertex 5.7 -4.09443806953456 21
endloop
endfacet
facet normal -0.09754966309535139 0.8777150804904952 -0.4691484847141115
outer loop
vertex 5 -6.792506442827335 16.097819538587608
vertex 5.7 -4.09443806953456 21
vertex 5.7 -6.728810508644328 16.071435818780994
endloop
endfacet
facet normal -0.0975496630953519 0.7693237023767555 -0.6313676458223882
outer loop
vertex 5 -3.3834758172793897 22
vertex 5 -0.5060966544097364 25.50609665441
vertex 5.7 -0.4573458969681763 25.45734589696818
endloop
endfacet
facet normal -0.0975496630953519 0.7693237023767555 -0.6313676458223882
outer loop
vertex 5 -3.3834758172793897 22
vertex 5.7 -0.4573458969681763 25.45734589696818
vertex 5.7 -3.2947163471684533 22
endloop
endfacet
facet normal -0.0975496630953519 0.6313676458223872 -0.7693237023767564
outer loop
vertex 5 -0.5060966544097364 25.50609665441
vertex 5.000000000000002 3 28.383475817279393
vertex 5.700000000000001 3 28.294716347168453
endloop
endfacet
facet normal -0.0975496630953519 0.6313676458223872 -0.7693237023767564
outer loop
vertex 5 -0.5060966544097364 25.50609665441
vertex 5.700000000000001 3 28.294716347168453
vertex 5.7 -0.4573458969681763 25.45734589696818
endloop
endfacet
facet normal 0.09754966309535007 -0.9904383506609422 0.09754966309534999
outer loop
vertex 5.7 -9.931056017649984 4.999999999999995
vertex 5.7 -9.355939169035638 10.83925935676611
vertex 5 -9.423558412096913 10.85270966048385
endloop
endfacet
facet normal 0.09754966309535007 -0.9904383506609422 0.09754966309534999
outer loop
vertex 5.7 -9.931056017649984 4.999999999999995
vertex 5 -9.423558412096913 10.85270966048385
vertex 5 -10 4.999999999999995
endloop
endfacet
facet normal 0.09754966309535247 -0.9523763602892679 0.2889002104397811
outer loop
vertex 5.7 -9.355939169035638 10.83925935676611
vertex 5.7 -7.652690041155601 16.45411925114608
vertex 5 -7.7163859753386 16.4805029709527
endloop
endfacet
facet normal 0.09754966309535247 -0.9523763602892679 0.2889002104397811
outer loop
vertex 5.7 -9.355939169035638 10.83925935676611
vertex 5 -7.7163859753386 16.4805029709527
vertex 5 -9.423558412096913 10.85270966048385
endloop
endfacet
facet normal 0.0975496630953482 -0.877715080490494 0.46914848471411447
outer loop
vertex 5.7 -7.652690041155601 16.45411925114608
vertex 5.7 -4.886763542801203 21.628803766248545
vertex 5 -4.944088369076377 21.66710699058803
endloop
endfacet
facet normal 0.0975496630953482 -0.877715080490494 0.46914848471411447
outer loop
vertex 5.7 -7.652690041155601 16.45411925114608
vertex 5 -4.944088369076377 21.66710699058803
vertex 5 -7.7163859753386 16.4805029709527
endloop
endfacet
facet normal 0.0975496630953519 -0.7693237023767571 0.6313676458223862
outer loop
vertex 5.7 -4.886763542801203 21.628803766248545
vertex 5.7 -1.1644526781547286 26.164452678154717
vertex 5 -1.21320343559643 26.21320343559642
endloop
endfacet
facet normal 0.0975496630953519 -0.7693237023767571 0.6313676458223862
outer loop
vertex 5.7 -4.886763542801203 21.628803766248545
vertex 5 -1.21320343559643 26.21320343559642
vertex 5 -4.944088369076377 21.66710699058803
endloop
endfacet
facet normal 0.0975496630953519 -0.6313676458223872 0.7693237023767564
outer loop
vertex 5.7 -1.1644526781547286 26.164452678154717
vertex 5.7 3.3711962337514727 29.886763542801233
vertex 5 3.3328930094118996 29.94408836907634
endloop
endfacet
facet normal 0.0975496630953519 -0.6313676458223872 0.7693237023767564
outer loop
vertex 5.7 -1.1644526781547286 26.164452678154717
vertex 5 3.3328930094118996 29.94408836907634
vertex 5 -1.21320343559643 26.21320343559642
endloop
endfacet
facet normal 0.0975496630953499 -0.9904383506609421 -0.09754966309535007
outer loop
vertex 5.699999999999999 -9.43859900086416 -4.286263797015729e-17
vertex 5.7 -9.931056017649984 4.999999999999995
vertex 5 -10 4.999999999999995
endloop
endfacet
facet normal 0.0975496630953499 -0.9904383506609421 -0.09754966309535007
outer loop
vertex 5.699999999999999 -9.43859900086416 -4.286263797015729e-17
vertex 5 -10 4.999999999999995
vertex 5 -9.507542983214176 0
endloop
endfacet
facet normal 0.09754966309535223 -0.469148484714115 0.8777150804904933
outer loop
vertex 5.7 3.3711962337514727 29.886763542801233
vertex 5.7 5 30.75737729413968
vertex 5 5 30.835175620367124
endloop
endfacet
facet normal 0.09754966309535223 -0.469148484714115 0.8777150804904933
outer loop
vertex 5.7 3.3711962337514727 29.886763542801233
vertex 5 5 30.835175620367124
vertex 5 3.3328930094118996 29.94408836907634
endloop
endfacet
endsolid csg.js
